<svg width="174" height="61" viewBox="0 0 174 61" fill="none" xmlns="http://www.w3.org/2000/svg">
<path fill-rule="evenodd" clip-rule="evenodd" d="M13.8147 4.49402H160.526C163.787 4.49402 164.967 4.85923 166.159 5.53749C167.336 6.20479 168.298 7.23651 168.92 8.49835C169.553 9.7766 169.894 11.0418 169.894 14.5244V46.6373C169.894 50.1199 169.553 51.3851 168.92 52.6634C168.298 53.9252 167.336 54.9569 166.159 55.6242C164.967 56.3025 163.787 56.6677 160.539 56.6677H13.8025C10.5544 56.6677 9.37439 56.3025 8.18221 55.6242C7.00534 54.9569 6.04309 53.9252 5.42072 52.6634C4.78813 51.3851 4.44751 50.1199 4.44751 46.6373V14.5244C4.44751 11.0418 4.78813 9.7766 5.42072 8.49835C6.04309 7.23651 7.00534 6.20479 8.18221 5.53749C9.37439 4.85923 10.5544 4.49402 13.8025 4.49402H13.8147Z" fill="black"/>
<path d="M41.3687 30.62C41.393 28.1809 42.5852 25.9374 44.5194 24.6592C43.9134 23.7325 43.1139 22.9704 42.1846 22.4337C41.2553 21.897 40.2219 21.6005 39.1668 21.5679C36.9284 21.307 34.7508 23.0026 33.6073 23.0026C32.4394 23.0026 30.6755 21.594 28.7777 21.6331C27.5499 21.676 26.3534 22.0589 25.3046 22.7446C24.2557 23.4303 23.3903 24.3955 22.7925 25.5461C20.2013 30.3591 22.1356 37.4156 24.6172 41.3026C25.8581 43.1939 27.2936 45.3199 29.2035 45.2417C31.0526 45.1634 31.7582 43.9765 33.9844 43.9765C36.2106 43.9765 36.8554 45.2417 38.7896 45.2025C40.7847 45.1634 42.0377 43.2852 43.2421 41.3678C44.1301 40.0113 44.8236 38.5113 45.2737 36.933C44.1166 36.408 43.1293 35.5294 42.4349 34.4067C41.7405 33.2841 41.3696 31.9671 41.3687 30.62ZM37.7069 19.0114C38.7947 17.6143 39.3315 15.8174 39.2033 14.0027C37.5366 14.1983 36.0038 15.0462 34.909 16.3896C34.37 17.0465 33.9573 17.8108 33.6942 18.639C33.4312 19.4671 33.3231 20.3427 33.3762 21.2157C34.2067 21.2246 35.0282 21.0308 35.7786 20.6488C36.5289 20.2669 37.1883 19.707 37.7069 19.0114Z" fill="white"/>
<path d="M66.8549 39.2419H61.1007L59.7139 43.6245H57.2809L62.7309 27.4245H65.2734L70.7234 43.6245H68.2417L66.8549 39.2419ZM61.6968 37.2202H66.2588L64.0082 30.1115H63.9474L61.6968 37.2202ZM82.4992 37.7158C82.4992 41.381 80.6745 43.7419 77.9008 43.7419C77.2008 43.7819 76.5043 43.6098 75.8912 43.2454C75.2781 42.8809 74.773 42.3388 74.4337 41.681H74.3851V47.5245H72.1224V31.8071H74.3121V33.7636H74.3486C74.7032 33.1068 75.2176 32.5657 75.8369 32.1981C76.4561 31.8305 77.1569 31.6503 77.8643 31.6767C80.6623 31.6767 82.4992 34.0506 82.4992 37.7158ZM80.1757 37.7158C80.1757 35.3289 79.02 33.7506 77.2561 33.7506C75.5408 33.7506 74.3729 35.3549 74.3729 37.7158C74.3729 40.0897 75.5408 41.694 77.2682 41.694C79.02 41.694 80.1757 40.1288 80.1757 37.7158ZM94.6157 37.7158C94.6157 41.381 92.791 43.7419 90.0295 43.7419C89.3294 43.7819 88.633 43.6098 88.0199 43.2454C87.4067 42.8809 86.9016 42.3388 86.5624 41.681H86.5016V47.5245H84.251V31.8071H86.4407V33.7636H86.4772C86.8308 33.1088 87.3433 32.569 87.9603 32.2015C88.5772 31.834 89.2754 31.6527 89.9808 31.6767C92.7788 31.6767 94.6157 34.0506 94.6157 37.7158ZM92.3043 37.7158C92.3043 35.3289 91.1487 33.7506 89.3847 33.7506C87.6573 33.7506 86.5016 35.3549 86.5016 37.7158C86.5016 40.0897 87.6573 41.694 89.3847 41.694C91.1487 41.694 92.3043 40.1288 92.3043 37.7158ZM102.633 39.1114C102.803 40.7158 104.251 41.7723 106.246 41.7723C108.156 41.7723 109.53 40.7158 109.53 39.268C109.53 38.0028 108.691 37.2593 106.732 36.7375L104.786 36.2289C102 35.5115 100.723 34.1289 100.723 31.8724C100.723 29.068 102.985 27.1506 106.209 27.1506C109.409 27.1506 111.598 29.068 111.671 31.8724H109.384C109.25 30.255 107.997 29.2637 106.185 29.2637C104.36 29.2637 103.119 30.255 103.119 31.7028C103.119 32.8376 103.91 33.5289 105.856 34.0376L107.523 34.468C110.625 35.2506 111.902 36.5941 111.902 38.9549C111.902 41.994 109.652 43.8853 106.075 43.8853C102.73 43.8853 100.467 42.0332 100.321 39.1114H102.633ZM116.793 29.0158V31.8071H118.885V33.7245H116.793V40.2462C116.793 41.2506 117.206 41.7201 118.131 41.7201C118.374 41.7201 118.618 41.694 118.861 41.668V43.5723C118.459 43.6636 118.034 43.7027 117.62 43.6897C115.382 43.6897 114.518 42.7766 114.518 40.4941V33.7245H112.912V31.8071H114.518V29.0158H116.793ZM120.09 37.7158C120.09 33.9984 122.133 31.6637 125.321 31.6637C128.508 31.6637 130.552 34.0115 130.552 37.7158C130.552 41.4462 128.52 43.7679 125.321 43.7679C122.121 43.7679 120.09 41.4462 120.09 37.7158ZM128.24 37.7158C128.24 35.1723 127.145 33.6723 125.321 33.6723C123.496 33.6723 122.401 35.1723 122.401 37.7158C122.401 40.2723 123.496 41.7593 125.321 41.7593C127.145 41.7593 128.24 40.2723 128.24 37.7158ZM132.413 31.8071H134.566V33.8158H134.615C134.919 32.5245 136.026 31.6376 137.267 31.6897C137.522 31.6897 137.79 31.7158 138.045 31.781V34.0506C137.715 33.9388 137.37 33.8859 137.023 33.8941C136.694 33.8783 136.365 33.9397 136.059 34.0739C135.754 34.2082 135.479 34.412 135.255 34.6714C135.03 34.9308 134.861 35.2394 134.759 35.5759C134.657 35.9125 134.624 36.2688 134.663 36.6202V43.6245H132.413V31.8071ZM148.459 40.1549C148.155 42.294 146.208 43.7679 143.714 43.7679C140.515 43.7679 138.532 41.4593 138.532 37.768C138.532 34.0636 140.527 31.6637 143.629 31.6637C146.67 31.6637 148.592 33.9071 148.592 37.4941V38.3158H140.807V38.4723C140.772 38.9069 140.824 39.3444 140.959 39.7559C141.094 40.1674 141.308 40.5434 141.589 40.8592C141.87 41.1749 142.21 41.423 142.587 41.5872C142.963 41.7514 143.369 41.8278 143.775 41.8114C144.87 41.9158 145.904 41.2506 146.318 40.1549H148.459ZM140.819 36.6332H146.33C146.35 36.2424 146.295 35.8513 146.167 35.4845C146.04 35.1177 145.843 34.783 145.59 34.5014C145.336 34.2198 145.031 33.9973 144.694 33.8479C144.357 33.6985 143.994 33.6254 143.629 33.6332C142.887 33.6332 142.175 33.9493 141.651 34.5119C141.126 35.0745 140.831 35.8376 140.831 36.6332H140.819Z" fill="white"/>
<path d="M61.4167 15.2287C61.8905 15.1937 62.3657 15.2718 62.8079 15.4574C63.2502 15.643 63.6486 15.9314 63.9744 16.3019C64.3002 16.6724 64.5453 17.1158 64.692 17.6001C64.8387 18.0844 64.8835 18.5976 64.823 19.1026C64.823 21.5809 63.57 23.0156 61.4167 23.0156H58.7891V15.2287H61.4167ZM59.9204 21.907H61.2829C61.6209 21.9279 61.959 21.8681 62.2728 21.732C62.5866 21.5959 62.8683 21.3867 63.0976 21.1197C63.3268 20.8526 63.498 20.5344 63.5986 20.1878C63.6992 19.8412 63.7268 19.4751 63.6795 19.1157C63.7268 18.7563 63.6992 18.3901 63.5986 18.0435C63.498 17.697 63.3268 17.3787 63.0976 17.1116C62.8683 16.8446 62.5866 16.6355 62.2728 16.4993C61.959 16.3632 61.6209 16.3034 61.2829 16.3244H59.9204V21.907ZM66.1003 20.0678C66.076 19.6879 66.1248 19.3066 66.2437 18.9477C66.3626 18.5888 66.549 18.2599 66.7915 17.9815C67.0339 17.7031 67.3271 17.4812 67.6529 17.3294C67.9788 17.1776 68.3302 17.0993 68.6854 17.0993C69.0406 17.0993 69.3921 17.1776 69.7179 17.3294C70.0437 17.4812 70.3369 17.7031 70.5793 17.9815C70.8218 18.2599 71.0082 18.5888 71.1271 18.9477C71.246 19.3066 71.2948 19.6879 71.2705 20.0678C71.2948 20.4478 71.246 20.8291 71.1271 21.188C71.0082 21.5469 70.8218 21.8758 70.5793 22.1541C70.3369 22.4325 70.0437 22.6545 69.7179 22.8063C69.3921 22.958 69.0406 23.0363 68.6854 23.0363C68.3302 23.0363 67.9788 22.958 67.6529 22.8063C67.3271 22.6545 67.0339 22.4325 66.7915 22.1541C66.549 21.8758 66.3626 21.5469 66.2437 21.188C66.1248 20.8291 66.076 20.4478 66.1003 20.0678ZM70.1513 20.0678C70.1513 18.8026 69.6282 18.0591 68.6915 18.0591C67.7426 18.0591 67.2195 18.8026 67.2195 20.0678C67.2195 21.3591 67.7426 22.0896 68.6793 22.0896C69.6282 22.0896 70.1513 21.3461 70.1513 20.0678ZM78.1316 23.0156H77.0125L75.8811 18.6852H75.7959L74.6646 23.0156H73.5697L72.0491 17.1461H73.1439L74.1171 21.62H74.2023L75.3337 17.1331H76.3677L77.4991 21.62H77.5842L78.5574 17.1331H79.6401L78.1316 23.0156ZM80.9053 17.1461H81.9515V18.0722H82.0367C82.3165 17.3809 82.9734 16.9635 83.6668 17.0287C83.9332 17.006 84.2009 17.048 84.45 17.1516C84.6991 17.2552 84.9232 17.4177 85.1056 17.6271C85.2881 17.8365 85.4241 18.0873 85.5035 18.3608C85.583 18.6343 85.6038 18.9236 85.5646 19.207V23.0156H84.4697V19.4939C84.4697 18.5548 84.1047 18.0852 83.3018 18.0852C83.1204 18.0746 82.9389 18.1065 82.7701 18.1786C82.6012 18.2507 82.449 18.3613 82.324 18.5027C82.199 18.6442 82.1042 18.8131 82.0462 18.9978C81.9882 19.1825 81.9683 19.3785 81.988 19.5722V23.0156H80.9053V17.1461ZM87.292 14.8505H88.3625V23.0156H87.2798L87.292 14.8505ZM89.871 20.0678C89.8467 19.6879 89.8955 19.3066 90.0144 18.9477C90.1333 18.5888 90.3197 18.2599 90.5622 17.9815C90.8046 17.7031 91.0978 17.4812 91.4236 17.3294C91.7495 17.1776 92.1009 17.0993 92.4561 17.0993C92.8113 17.0993 93.1628 17.1776 93.4886 17.3294C93.8144 17.4812 94.1076 17.7031 94.35 17.9815C94.5925 18.2599 94.7789 18.5888 94.8978 18.9477C95.0167 19.3066 95.0655 19.6879 95.0412 20.0678C95.0655 20.4478 95.0167 20.8291 94.8978 21.188C94.7789 21.5469 94.5925 21.8758 94.35 22.1541C94.1076 22.4325 93.8144 22.6545 93.4886 22.8063C93.1628 22.958 92.8113 23.0363 92.4561 23.0363C92.1009 23.0363 91.7495 22.958 91.4236 22.8063C91.0978 22.6545 90.8046 22.4325 90.5622 22.1541C90.3197 21.8758 90.1333 21.5469 90.0144 21.188C89.8955 20.8291 89.8467 20.4478 89.871 20.0678ZM93.922 20.0678C93.922 18.8026 93.3867 18.0591 92.4622 18.0591C91.5133 18.0591 90.9902 18.8026 90.9902 20.0678C90.9902 21.3591 91.5133 22.0896 92.45 22.0896C93.3867 22.0896 93.922 21.3461 93.922 20.0678ZM96.1726 21.3461C96.1726 20.3026 96.9025 19.6896 98.2163 19.5983L99.7005 19.507V18.9983C99.7005 18.3852 99.3112 18.0331 98.5691 18.0331C97.9608 18.0331 97.5472 18.2678 97.4377 18.6852H96.3794C96.501 17.6678 97.3769 17.0287 98.6178 17.0287C99.9924 17.0287 100.771 17.7591 100.771 18.9983V23.0156H99.7248V22.1809H99.6396C99.2868 22.7939 98.6664 23.1461 97.9973 23.1069C97.7672 23.1325 97.5347 23.106 97.3147 23.0292C97.0947 22.9524 96.8922 22.8269 96.7202 22.661C96.5483 22.4951 96.4107 22.2923 96.3164 22.0658C96.222 21.8393 96.173 21.5941 96.1726 21.3461ZM99.7005 20.8504V20.3548L98.3623 20.4461C97.608 20.4983 97.2674 20.7852 97.2674 21.2939C97.2674 21.8157 97.6932 22.1287 98.2771 22.1287C98.4495 22.1484 98.6237 22.1307 98.7895 22.0766C98.9553 22.0225 99.1092 21.9331 99.2421 21.8138C99.375 21.6945 99.484 21.5477 99.5628 21.3822C99.6415 21.2167 99.6884 21.0358 99.7005 20.8504ZM102.194 20.0678C102.194 18.2157 103.082 17.0418 104.469 17.0418C105.163 17.0026 105.82 17.407 106.148 18.0722H106.221V14.8505H107.316V23.0156H106.27V22.0896H106.184C105.832 22.7417 105.175 23.133 104.469 23.1069C103.07 23.1069 102.194 21.933 102.194 20.0678ZM103.313 20.0678C103.313 21.32 103.861 22.0635 104.773 22.0635C105.686 22.0635 106.245 21.307 106.245 20.0809C106.245 18.8548 105.674 18.0852 104.773 18.0852C103.861 18.0852 103.313 18.8418 103.313 20.0678ZM111.78 20.0678C111.756 19.6879 111.805 19.3066 111.924 18.9477C112.043 18.5888 112.229 18.2599 112.472 17.9815C112.714 17.7031 113.007 17.4812 113.333 17.3294C113.659 17.1776 114.01 17.0993 114.366 17.0993C114.721 17.0993 115.072 17.1776 115.398 17.3294C115.724 17.4812 116.017 17.7031 116.259 17.9815C116.502 18.2599 116.688 18.5888 116.807 18.9477C116.926 19.3066 116.975 19.6879 116.951 20.0678C116.975 20.4478 116.926 20.8291 116.807 21.188C116.688 21.5469 116.502 21.8758 116.259 22.1541C116.017 22.4325 115.724 22.6545 115.398 22.8063C115.072 22.958 114.721 23.0363 114.366 23.0363C114.01 23.0363 113.659 22.958 113.333 22.8063C113.007 22.6545 112.714 22.4325 112.472 22.1541C112.229 21.8758 112.043 21.5469 111.924 21.188C111.805 20.8291 111.756 20.4478 111.78 20.0678ZM115.831 20.0678C115.831 18.8026 115.296 18.0591 114.372 18.0591C113.423 18.0591 112.9 18.8026 112.9 20.0678C112.9 21.3591 113.423 22.0896 114.359 22.0896C115.296 22.0896 115.831 21.3461 115.831 20.0678ZM118.398 17.1461H119.432V18.0722H119.517C119.797 17.3809 120.454 16.9635 121.16 17.0287C121.425 17.0081 121.691 17.0516 121.939 17.1561C122.187 17.2606 122.409 17.4235 122.59 17.6326C122.771 17.8417 122.906 18.0917 122.985 18.3642C123.064 18.6367 123.084 18.9247 123.045 19.207V23.0156H121.975V19.4939C121.975 18.5548 121.586 18.0852 120.783 18.0852C120.602 18.0766 120.422 18.1099 120.255 18.1828C120.087 18.2558 119.937 18.3667 119.813 18.5079C119.689 18.6492 119.596 18.8174 119.538 19.0011C119.481 19.1848 119.462 19.3796 119.481 19.5722V23.0156H118.386V17.1461H118.398ZM129.164 15.6722V17.1722H130.344V18.1374H129.164V21.1635C129.164 21.7765 129.396 22.0504 129.931 22.0504L130.344 22.0243V22.9896C130.15 23.0287 129.955 23.0417 129.761 23.0417C128.544 23.0417 128.082 22.5852 128.082 21.4635V18.1374H127.206V17.1722H128.082V15.6722H129.164ZM131.816 14.8505H132.899V18.0852H132.984C133.276 17.3939 133.945 16.9635 134.651 17.0418C134.915 17.0259 135.179 17.0728 135.425 17.1789C135.67 17.2851 135.891 17.448 136.071 17.6559C136.251 17.8639 136.386 18.1119 136.467 18.3823C136.547 18.6526 136.571 18.9386 136.537 19.22V23.0026H135.454V19.507C135.454 18.5678 135.04 18.0983 134.286 18.0983C134.1 18.0803 133.912 18.1064 133.736 18.1747C133.56 18.2431 133.4 18.352 133.268 18.4939C133.136 18.6357 133.034 18.807 132.97 18.9956C132.907 19.1841 132.882 19.3854 132.899 19.5852V23.0156H131.816V14.8505ZM142.838 21.4243C142.69 21.9599 142.372 22.4229 141.938 22.7327C141.505 23.0426 140.984 23.1796 140.466 23.12C140.106 23.129 139.748 23.0543 139.417 22.901C139.087 22.7476 138.791 22.5193 138.551 22.2318C138.31 21.9442 138.131 21.6042 138.025 21.2351C137.918 20.8661 137.888 20.4768 137.936 20.0939C137.889 19.7092 137.919 19.3182 138.025 18.9473C138.131 18.5763 138.31 18.234 138.55 17.9435C138.789 17.653 139.085 17.421 139.415 17.2632C139.746 17.1054 140.104 17.0254 140.466 17.0287C141.986 17.0287 142.899 18.1374 142.899 19.9896V20.3809H139.043V20.4591C139.026 20.6748 139.051 20.8918 139.117 21.0964C139.183 21.3009 139.288 21.4884 139.425 21.6469C139.563 21.8053 139.729 21.9312 139.915 22.0164C140.1 22.1016 140.301 22.1443 140.502 22.1417C141.025 22.207 141.536 21.92 141.804 21.4243H142.838ZM139.043 19.5331H141.804C141.818 19.3367 141.793 19.1394 141.731 18.9538C141.67 18.7682 141.573 18.5982 141.448 18.4548C141.322 18.3113 141.17 18.1974 141.001 18.1203C140.832 18.0432 140.65 18.0046 140.466 18.007C140.278 18.0034 140.091 18.0405 139.917 18.1159C139.743 18.1914 139.585 18.3037 139.452 18.4461C139.319 18.5885 139.215 18.7581 139.144 18.9449C139.074 19.1316 139.039 19.3317 139.043 19.5331Z" fill="white"/>
</svg>
