<svg width="173" height="61" viewBox="0 0 173 61" fill="none" xmlns="http://www.w3.org/2000/svg">
<path fill-rule="evenodd" clip-rule="evenodd" d="M13.0167 4.49402H159.728C162.989 4.49402 164.169 4.85923 165.361 5.53749C166.538 6.20479 167.5 7.23651 168.122 8.49835C168.755 9.7766 169.096 11.0418 169.096 14.5244V46.6373C169.096 50.1199 168.755 51.3851 168.122 52.6634C167.5 53.9252 166.538 54.9569 165.361 55.6242C164.169 56.3025 162.989 56.6677 159.741 56.6677H13.0045C9.75644 56.6677 8.57642 56.3025 7.38424 55.6242C6.20737 54.9569 5.24511 53.9252 4.62275 52.6634C3.99016 51.3851 3.64954 50.1199 3.64954 46.6373V14.5244C3.64954 11.0418 3.99016 9.7766 4.62275 8.49835C5.24511 7.23651 6.20737 6.20479 7.38424 5.53749C8.57642 4.85923 9.75644 4.49402 13.0045 4.49402H13.0167Z" fill="black"/>
<path fill-rule="evenodd" clip-rule="evenodd" d="M22.8215 43.3242L22.9674 43.3633C22.9181 43.3536 22.8693 43.3405 22.8215 43.3242ZM43.6239 28.4547C44.1713 28.7808 44.5119 29.2112 44.6214 29.6547L44.6457 29.8243C44.5971 30.3199 44.2443 30.8156 43.6117 31.1938L24.3908 42.8938C24.0015 43.1416 23.6244 43.246 23.2959 43.246C22.9553 43.246 22.6633 43.1286 22.42 42.9068L22.347 42.8286C22.0282 42.4162 21.8673 41.8894 21.8969 41.3547V18.2939C21.8969 17.5895 22.0915 17.0548 22.42 16.7287C22.6633 16.5069 22.9553 16.3896 23.2959 16.3896C23.6244 16.3896 24.0015 16.5069 24.3908 16.7417L43.6117 28.4547H43.6239ZM23.2837 16.233H23.454H23.2837ZM134.96 42.7894H137.222V26.4852H134.96V42.7894ZM155.397 32.3547L152.794 39.4242H152.721L150.02 32.3547H147.575L151.626 42.2416L149.315 47.7329H151.687L157.928 32.3547H155.397ZM142.526 40.9373C141.784 40.9373 140.75 40.546 140.75 39.5547C140.75 38.2895 142.04 37.8068 143.147 37.8068C144.157 37.8068 144.619 38.0416 145.227 38.3547C145.145 39.0627 144.826 39.7146 144.329 40.1895C143.832 40.6645 143.192 40.9301 142.526 40.9373ZM142.806 32.0025C141.152 32.0025 139.461 32.7851 138.755 34.4938L140.763 35.4069C141.2 34.4938 142.003 34.2069 142.831 34.2069C144.011 34.2069 145.203 34.9503 145.227 36.2938V36.4634C144.496 36.0486 143.682 35.8335 142.855 35.8373C140.69 35.8373 138.475 37.1155 138.475 39.5025C138.475 41.6938 140.264 43.1025 142.247 43.1025C143.779 43.1025 144.619 42.359 145.154 41.4981H145.227V42.7633H147.417V36.5025C147.417 33.6199 145.397 32.0025 142.794 32.0025H142.806ZM128.768 34.3503H125.544V28.7417H128.768C130.471 28.7417 131.444 30.2547 131.444 31.546C131.444 32.8112 130.471 34.3373 128.768 34.3373V34.3503ZM128.719 26.4852H123.269V42.7894H125.544V36.6069H128.707C131.225 36.6069 133.695 34.6503 133.695 31.546C133.695 28.4417 131.225 26.4852 128.707 26.4852H128.719ZM99.0482 40.9373C97.4911 40.9373 96.1773 39.5286 96.1773 37.5982C96.1773 35.6416 97.4911 34.2069 99.0482 34.2069C100.605 34.2069 101.822 35.6416 101.822 37.5982C101.822 39.5286 100.605 40.9373 99.0482 40.9373ZM101.664 33.2677H101.579C101.233 32.8653 100.811 32.5466 100.341 32.3329C99.8709 32.1192 99.3639 32.0155 98.8536 32.0286C97.5144 32.0829 96.2478 32.6952 95.3231 33.7353C94.3985 34.7754 93.8888 36.1613 93.9024 37.5982C93.8921 39.0302 94.4041 40.4099 95.329 41.443C96.2539 42.4761 97.5187 43.081 98.8536 43.1286C99.3663 43.1427 99.8757 43.0368 100.346 42.8183C100.817 42.5998 101.237 42.2739 101.579 41.8633H101.664V42.659C101.664 44.7851 100.605 45.9199 98.9023 45.9199C98.3329 45.9082 97.7798 45.7145 97.3138 45.3636C96.8478 45.0127 96.4902 44.5206 96.2868 43.9503L94.316 44.8242C94.6874 45.8001 95.3226 46.6347 96.1399 47.2204C96.9572 47.8062 97.9192 48.1164 98.9023 48.1111C101.566 48.1111 103.817 46.4155 103.817 42.3329V32.3677H101.664V33.2808V33.2677ZM105.386 42.7894H107.661V26.4852H105.386V42.7894ZM111.007 37.4025C110.982 36.9991 111.033 36.5944 111.156 36.2122C111.279 35.83 111.472 35.478 111.723 35.1768C111.975 34.8755 112.28 34.6311 112.62 34.4578C112.961 34.2846 113.331 34.186 113.707 34.1677C114.62 34.1677 115.386 34.6503 115.629 35.3416L111.007 37.4155V37.4025ZM118.062 35.5634C117.637 34.3243 116.323 32.0417 113.634 32.0417C110.97 32.0417 108.756 34.2721 108.756 37.5721C108.756 40.6894 110.946 43.1286 113.89 43.1286C116.262 43.1286 117.637 41.5634 118.208 40.6634L116.444 39.4112C116.179 39.8813 115.803 40.2691 115.355 40.5367C114.908 40.8042 114.402 40.9423 113.89 40.9373C112.734 40.9373 111.907 40.3764 111.384 39.2547L118.306 36.1895L118.062 35.5634ZM62.9543 33.7373V36.0851H68.1974C68.1218 37.1877 67.7018 38.2308 67.0053 39.046C66.4781 39.6219 65.844 40.0727 65.1441 40.3693C64.4442 40.6658 63.694 40.8016 62.9421 40.7677C62.1797 40.766 61.4252 40.6023 60.7222 40.2859C60.0192 39.9696 59.3817 39.5069 58.8466 38.9247C58.3115 38.3424 57.8893 37.6522 57.6046 36.8939C57.32 36.1355 57.1783 35.3242 57.188 34.5069C57.1737 33.2932 57.4929 32.1018 58.1058 31.0813C58.7187 30.0608 59.5982 29.2563 60.6346 28.7682C61.6711 28.28 62.8186 28.1297 63.9342 28.3361C65.0497 28.5424 66.084 29.0963 66.9079 29.9286L68.4529 28.2721C67.7279 27.5032 66.867 26.8972 65.9207 26.4896C64.9744 26.0819 63.9618 25.8809 62.9421 25.8982C60.8013 25.898 58.7464 26.8007 57.2213 28.4115C55.6962 30.0223 54.8234 32.2118 54.7915 34.5069C54.8234 36.8019 55.6962 38.9914 57.2213 40.6022C58.7464 42.213 60.8013 43.1158 62.9421 43.1155C65.3386 43.1155 67.1391 42.2807 68.5502 40.7025C69.8292 39.204 70.5104 37.2283 70.448 35.1982C70.448 34.6503 70.4115 34.1547 70.3263 33.7373H62.9421H62.9543ZM76.4211 40.9373C74.8518 40.9373 73.5014 39.5547 73.5014 37.5721C73.5014 35.5764 74.8518 34.2199 76.4211 34.2199C78.0026 34.2199 79.3407 35.5764 79.3407 37.5721C79.3407 39.5547 78.0026 40.9373 76.4211 40.9373ZM76.4211 32.0286C75.7378 32.0163 75.0592 32.1512 74.4254 32.4251C73.7916 32.699 73.2155 33.1064 72.7312 33.6233C72.2468 34.1402 71.8641 34.756 71.6057 35.4342C71.3473 36.1125 71.2183 36.8394 71.2266 37.5721C71.2167 38.3058 71.3444 39.0342 71.6021 39.7139C71.8598 40.3937 72.2423 41.0111 72.7268 41.5293C73.2113 42.0476 73.7879 42.4562 74.4226 42.7309C75.0572 43.0056 75.7368 43.1409 76.4211 43.1286C77.1054 43.1409 77.785 43.0056 78.4196 42.7309C79.0542 42.4562 79.6309 42.0476 80.1154 41.5293C80.5999 41.0111 80.9823 40.3937 81.2401 39.7139C81.4978 39.0342 81.6255 38.3058 81.6156 37.5721C81.6238 36.8394 81.4949 36.1125 81.2365 35.4342C80.978 34.756 80.5953 34.1402 80.111 33.6233C79.6266 33.1064 79.0505 32.699 78.4167 32.4251C77.7829 32.1512 77.1043 32.0163 76.4211 32.0286ZM87.759 40.9373C86.1775 40.9373 84.8394 39.5547 84.8394 37.5721C84.8394 35.5764 86.1775 34.2199 87.759 34.2199C89.3161 34.2199 90.6786 35.5764 90.6786 37.5721C90.6786 39.5547 89.3161 40.9373 87.759 40.9373ZM87.759 32.0286C87.0757 32.0163 86.3971 32.1512 85.7633 32.4251C85.1295 32.699 84.5534 33.1064 84.0691 33.6233C83.5848 34.1402 83.2021 34.756 82.9436 35.4342C82.6852 36.1125 82.5563 36.8394 82.5645 37.5721C82.5546 38.3058 82.6823 39.0342 82.94 39.7139C83.1977 40.3937 83.5802 41.0111 84.0647 41.5293C84.5492 42.0476 85.1259 42.4562 85.7605 42.7309C86.3951 43.0056 87.0747 43.1409 87.759 43.1286C88.4433 43.1409 89.1229 43.0056 89.7575 42.7309C90.3921 42.4562 90.9688 42.0476 91.4533 41.5293C91.9378 41.0111 92.3203 40.3937 92.578 39.7139C92.8357 39.0342 92.9634 38.3058 92.9535 37.5721C92.9617 36.8394 92.8328 36.1125 92.5744 35.4342C92.3159 34.756 91.9332 34.1402 91.4489 33.6233C90.9646 33.1064 90.3885 32.699 89.7547 32.4251C89.1209 32.1512 88.4422 32.0163 87.759 32.0286Z" fill="white"/>
<path fill-rule="evenodd" clip-rule="evenodd" d="M61.4947 17.707C61.4947 18.6853 61.2271 19.4679 60.6797 20.0548C60.0714 20.7461 59.2564 21.0983 58.271 21.0983C57.3221 21.0983 56.507 20.7461 55.8379 20.0418C55.5164 19.702 55.2631 19.2953 55.0937 18.8467C54.9242 18.3981 54.8422 17.917 54.8526 17.4331C54.8526 16.3896 55.181 15.5027 55.8501 14.7983C56.507 14.094 57.3099 13.7418 58.271 13.7418C58.7332 13.7418 59.1834 13.8462 59.6091 14.0418C60.0471 14.2375 60.3877 14.4983 60.6432 14.8244L60.0592 15.4375C59.8398 15.1619 59.5647 14.9436 59.2549 14.7989C58.9451 14.6543 58.6086 14.5872 58.271 14.6027C57.5776 14.6027 56.9815 14.8636 56.4705 15.3853C55.9718 15.907 55.7163 16.5853 55.7163 17.4201C55.7163 18.2548 55.9596 18.9331 56.4705 19.4548C56.9815 19.9766 57.5654 20.2374 58.271 20.2374C59.0009 20.2374 59.6091 19.9766 60.0957 19.4548C60.412 19.1027 60.6067 18.6331 60.6553 18.0201H58.271V17.1722H61.4461C61.4826 17.3548 61.4947 17.5375 61.4947 17.694" fill="white"/>
<path fill-rule="evenodd" clip-rule="evenodd" d="M61.4945 17.7071H61.385C61.385 18.6723 61.1174 19.4027 60.6065 19.9767C59.9982 20.6419 59.2318 20.981 58.2708 20.981C57.3462 20.981 56.5676 20.6419 55.9229 19.9636C55.6074 19.6339 55.3592 19.2376 55.1938 18.7999C55.0284 18.3621 54.9494 17.8923 54.9618 17.4201C54.9618 16.4028 55.2781 15.568 55.935 14.8767C56.2394 14.5457 56.6035 14.2848 57.0051 14.1099C57.4067 13.9349 57.8374 13.8497 58.2708 13.8593C58.7209 13.8593 59.1588 13.9506 59.5724 14.1462C59.986 14.3419 60.3023 14.5897 60.5578 14.9028L60.643 14.8245L60.5578 14.7462L59.986 15.3593L60.059 15.4375L60.1442 15.3723C59.6941 14.7854 59.0493 14.4854 58.2708 14.4854C57.5408 14.4854 56.9204 14.7593 56.3973 15.3071C55.8742 15.8419 55.6066 16.5593 55.6066 17.4201C55.6066 18.281 55.8742 18.9854 56.3973 19.5332C56.9204 20.081 57.553 20.3549 58.2708 20.3549C59.025 20.3549 59.6697 20.081 60.1807 19.5332C60.5213 19.168 60.716 18.6593 60.7646 18.0332V17.9028H58.3924V17.2897H61.458V17.1723L61.3485 17.1984C61.385 17.368 61.3972 17.5375 61.3972 17.7071H61.6162C61.6162 17.5245 61.604 17.3419 61.5675 17.1593L61.5553 17.0549H58.1491V18.1375H60.643V18.0201H60.5213C60.4848 18.6071 60.3023 19.0506 60.0104 19.3636C59.5359 19.8723 58.9642 20.1201 58.2586 20.1201C57.5895 20.1201 57.0177 19.8593 56.5311 19.3636C56.0445 18.868 55.8012 18.2288 55.8012 17.4201C55.8012 16.6115 56.0445 15.9854 56.5311 15.4636C57.0177 14.968 57.5895 14.7202 58.2586 14.7202C58.9885 14.7202 59.5481 14.981 59.9617 15.5158L60.0469 15.6202L60.7038 14.9028L60.7768 14.8376L60.7159 14.7462C60.4245 14.3857 60.0577 14.1041 59.6454 13.9245C59.2106 13.7265 58.7431 13.6245 58.2708 13.6245C57.2975 13.6245 56.446 13.9897 55.7769 14.7202C55.4422 15.0683 55.1777 15.4864 54.9998 15.9486C54.822 16.4108 54.7345 16.9072 54.7429 17.4071C54.7429 18.4767 55.0835 19.3897 55.7769 20.1201C56.1022 20.4727 56.4911 20.7505 56.9199 20.9366C57.3487 21.1228 57.8083 21.2133 58.2708 21.2027C59.2805 21.2027 60.1199 20.8375 60.7524 20.1201L60.6795 20.0419L60.7524 20.1332C61.3242 19.5201 61.604 18.6984 61.604 17.6941H61.4945V17.7071ZM66.5431 14.7593H63.5504V17.0028H66.2511V17.8375H63.5504V20.081H66.5431V20.9419H62.711V13.8984H66.5431V14.7593Z" fill="white"/>
<path fill-rule="evenodd" clip-rule="evenodd" d="M66.5431 14.7593V14.6419H63.441V17.1201H66.1417V17.7201H63.441V20.1984H66.4336V20.8245H62.8206V14.0158H66.4336V14.7593H66.5431V14.6419V14.7723H66.6526V13.781H62.6016V21.0592H66.6526V19.9636H63.66V17.9549H66.3607V16.8853H63.66V14.8767H66.6526V14.7593H66.531H66.5431ZM70.0954 20.9418H69.256V14.7593H67.4312V13.8984H71.9323V14.7593H70.1075V20.9418" fill="white"/>
<path fill-rule="evenodd" clip-rule="evenodd" d="M70.0955 20.9418V20.8245H69.3656V14.6419H67.5408V14.0158H71.823V14.6419H69.9982V20.9418H70.0955V20.8245V20.9549H70.2172V14.8767H72.0419V13.781H67.3097V14.8767H69.1466V21.0592H70.205V20.9418H70.0955ZM75.2049 20.9418H76.0564V13.8984H75.2049V20.9418Z" fill="white"/>
<path fill-rule="evenodd" clip-rule="evenodd" d="M75.2047 20.9418H75.3142V14.0288H75.9346V20.8245H75.2047V20.9549H75.3142H75.1925V21.0592H76.1657V13.781H75.0952V21.0592H75.2047V20.9418ZM79.791 20.9418H78.9394V14.7593H77.1146V13.8984H81.6157V14.7593H79.791V20.9418Z" fill="white"/>
<path fill-rule="evenodd" clip-rule="evenodd" d="M79.7908 20.9419V20.8245H79.0609V14.6419H77.2239V14.0158H81.5061V14.6419H79.6813V20.9419H79.7908V20.8245V20.9549H79.9003V14.8767H81.725V13.7811H77.0049V14.8767H78.8297V21.0593H79.9003V20.9419H79.7786H79.7908ZM85.9707 19.4419C86.4573 19.9636 87.0655 20.2245 87.7589 20.2245C88.4645 20.2245 89.0606 19.9636 89.5472 19.4419C90.0338 18.9202 90.2771 18.2419 90.2771 17.4202C90.2771 16.5984 90.0338 15.9332 89.5472 15.3984C89.0606 14.8767 88.4645 14.6158 87.7589 14.6158C87.0534 14.6158 86.4573 14.8767 85.9707 15.3984C85.4841 15.9202 85.2408 16.5984 85.2408 17.4202C85.2408 18.2419 85.4841 18.9202 85.9707 19.4419ZM90.1677 20.0289C89.5229 20.7462 88.72 21.0984 87.7589 21.0984C86.7979 21.0984 85.995 20.7462 85.3502 20.0289C85.0332 19.6862 84.7837 19.2787 84.6165 18.8305C84.4493 18.3824 84.3679 17.9027 84.377 17.4202C84.3673 16.9387 84.4477 16.4599 84.6136 16.0124C84.7794 15.5648 85.0274 15.1575 85.3427 14.8145C85.6581 14.4715 86.0344 14.1999 86.4495 14.0156C86.8645 13.8314 87.3098 13.7383 87.7589 13.7419C88.2081 13.7383 88.6534 13.8314 89.0684 14.0156C89.4835 14.1999 89.8598 14.4715 90.1751 14.8145C90.4905 15.1575 90.7384 15.5648 90.9043 16.0124C91.0702 16.4599 91.1506 16.9387 91.1409 17.4202C91.1409 18.4506 90.8124 19.3245 90.1677 20.0289Z" fill="white"/>
<path fill-rule="evenodd" clip-rule="evenodd" d="M85.9708 19.4419L85.8979 19.5201C86.4088 20.0679 87.0292 20.3549 87.7591 20.3549C88.489 20.3549 89.1216 20.0679 89.6204 19.5201C90.1313 18.9723 90.3868 18.2679 90.3868 17.4332C90.3868 16.5723 90.1313 15.868 89.6204 15.3201C89.3806 15.0509 89.0914 14.8378 88.7711 14.6941C88.4508 14.5505 88.1063 14.4794 87.7591 14.4854C87.0292 14.4854 86.4088 14.7723 85.8979 15.3201C85.6445 15.5965 85.4459 15.9251 85.3142 16.286C85.1825 16.6469 85.1203 17.0327 85.1314 17.4201C85.1314 18.2679 85.3869 18.9853 85.8979 19.5201L86.056 19.3636C85.8212 19.1082 85.6376 18.8041 85.5162 18.4699C85.3949 18.1357 85.3385 17.7785 85.3504 17.4201C85.3504 16.6375 85.5937 15.9853 86.056 15.4767C86.2763 15.232 86.5412 15.0386 86.8342 14.9085C87.1272 14.7783 87.442 14.7142 87.7591 14.7201C88.4404 14.7201 89 14.981 89.4622 15.4767C89.9367 15.9984 90.1678 16.6245 90.1678 17.4332C90.1678 18.2158 89.9245 18.8549 89.4622 19.3636C89 19.8723 88.4404 20.1201 87.7591 20.1201C87.442 20.126 87.1272 20.0619 86.8342 19.9318C86.5412 19.8016 86.2763 19.6082 86.056 19.3636L85.9708 19.4419ZM90.1678 20.0288L90.0948 19.9505C89.4622 20.6418 88.6958 20.981 87.7591 20.994C87.3253 20.9959 86.8956 20.9046 86.4953 20.7254C86.095 20.5463 85.7321 20.2831 85.4283 19.9512C85.1244 19.6193 84.8856 19.2255 84.7259 18.793C84.5663 18.3605 84.4891 17.8981 84.4989 17.4332C84.4875 16.9671 84.5634 16.5033 84.7223 16.0693C84.8812 15.6353 85.1197 15.24 85.4238 14.9067C85.7279 14.5734 86.0912 14.3089 86.4924 14.129C86.8935 13.9491 87.3243 13.8574 87.7591 13.8593C88.6958 13.8593 89.4622 14.1984 90.0827 14.9027C90.7153 15.594 91.0316 16.4288 91.0316 17.4201C91.0316 18.4245 90.7153 19.2592 90.0948 19.9505L90.253 20.1201C90.9099 19.3897 91.2505 18.4766 91.2505 17.4201C91.2603 16.9232 91.177 16.4292 91.0056 15.9674C90.8343 15.5056 90.5782 15.0853 90.2527 14.7314C89.9272 14.3776 89.5388 14.0973 89.1105 13.9071C88.6822 13.717 88.2227 13.6209 87.7591 13.6245C87.2966 13.6226 86.8384 13.72 86.4115 13.911C85.9846 14.1019 85.5977 14.3824 85.2734 14.7361C84.9492 15.0898 84.6943 15.5095 84.5237 15.9705C84.353 16.4314 84.2701 16.9243 84.2799 17.4201C84.2799 18.4766 84.6083 19.3766 85.2774 20.1201C85.9343 20.8505 86.7737 21.2158 87.7591 21.2158C88.7445 21.2158 89.5839 20.8505 90.253 20.1201L90.1678 20.0288ZM92.3332 20.9418V13.8984H93.3551L96.5424 19.3766H96.5789L96.5424 18.0201V13.8984H97.3939V20.9418H96.5059L93.1605 15.2027H93.124L93.1605 16.5593V20.9418H92.3211" fill="white"/>
<path fill-rule="evenodd" clip-rule="evenodd" d="M92.333 20.9418H92.4303V14.0288H93.2819L96.4813 19.5071H96.6881L96.6516 18.0201V14.0158H97.2721V20.8245H96.5665L93.2211 15.0853H93.0143L93.0508 16.5593V20.8245H92.3208V20.9549H92.4425H92.3208V21.0592H93.2697V16.5593L93.2332 15.1897H93.1238V15.3201H93.1602V15.1897L93.0751 15.2549L96.4448 21.0592H97.491V13.781H96.4327V18.0201L96.4692 19.3766H96.5786V19.2592H96.5422V19.3897L96.6395 19.3114L93.4157 13.781H92.2114V21.0592H92.333V20.9418Z" fill="white"/>
</svg>
