<svg width="16" height="17" viewBox="0 0 16 17" fill="none" xmlns="http://www.w3.org/2000/svg">
<path fill-rule="evenodd" clip-rule="evenodd" d="M8.00067 0.655273C5.828 0.655273 5.55533 0.664773 4.702 0.703607C3.85033 0.742607 3.269 0.87744 2.76033 1.07527C2.23417 1.27961 1.78783 1.55294 1.34317 1.99777C0.898167 2.44244 0.624833 2.88877 0.419833 3.41477C0.2215 3.92361 0.0865 4.50511 0.0481667 5.35644C0.01 6.20977 0 6.48261 0 8.65527C0 10.8279 0.00966667 11.0998 0.0483333 11.9531C0.0875 12.8048 0.222333 13.3861 0.42 13.8948C0.6245 14.4209 0.897833 14.8673 1.34267 15.3119C1.78717 15.7569 2.2335 16.0309 2.75933 16.2353C3.26833 16.4331 3.84983 16.5679 4.70133 16.6069C5.55467 16.6458 5.82717 16.6553 7.99967 16.6553C10.1725 16.6553 10.4443 16.6458 11.2977 16.6069C12.1493 16.5679 12.7313 16.4331 13.2403 16.2353C13.7663 16.0309 14.212 15.7569 14.6565 15.3119C15.1015 14.8673 15.3748 14.4209 15.5798 13.8949C15.7765 13.3861 15.9115 12.8046 15.9515 11.9533C15.9898 11.0999 15.9998 10.8279 15.9998 8.65527C15.9998 6.48261 15.9898 6.20994 15.9515 5.35661C15.9115 4.50494 15.7765 3.92361 15.5798 3.41494C15.3748 2.88877 15.1015 2.44244 14.6565 1.99777C14.2115 1.55277 13.7665 1.27944 13.2398 1.07527C12.7298 0.87744 12.1482 0.742607 11.2965 0.703607C10.4432 0.664773 10.1715 0.655273 7.99817 0.655273H8.00067ZM7.28318 2.09694C7.49618 2.09661 7.73385 2.09694 8.00085 2.09694C10.1368 2.09694 10.39 2.10461 11.2335 2.14294C12.0135 2.17861 12.4368 2.30894 12.7188 2.41844C13.0922 2.56344 13.3583 2.73677 13.6382 3.01677C13.9182 3.29677 14.0915 3.56344 14.2368 3.93677C14.3463 4.21844 14.4768 4.64177 14.5123 5.42177C14.5507 6.26511 14.559 6.51844 14.559 8.65344C14.559 10.7884 14.5507 11.0418 14.5123 11.8851C14.4767 12.6651 14.3463 13.0884 14.2368 13.3701C14.0918 13.7434 13.9182 14.0093 13.6382 14.2891C13.3582 14.5691 13.0923 14.7424 12.7188 14.8874C12.4372 14.9974 12.0135 15.1274 11.2335 15.1631C10.3902 15.2014 10.1368 15.2098 8.00085 15.2098C5.86468 15.2098 5.61151 15.2014 4.76818 15.1631C3.98818 15.1271 3.56485 14.9968 3.28268 14.8873C2.90935 14.7423 2.64268 14.5689 2.36268 14.2889C2.08268 14.0089 1.90935 13.7429 1.76401 13.3694C1.65451 13.0878 1.52401 12.6644 1.48851 11.8844C1.45018 11.0411 1.44251 10.7878 1.44251 8.65144C1.44251 6.51511 1.45018 6.26311 1.48851 5.41977C1.52418 4.63977 1.65451 4.21644 1.76401 3.93444C1.90901 3.56111 2.08268 3.29444 2.36268 3.01444C2.64268 2.73444 2.90935 2.56111 3.28268 2.41577C3.56468 2.30577 3.98818 2.17577 4.76818 2.13994C5.50618 2.10661 5.79218 2.09661 7.28318 2.09494V2.09694ZM12.2712 3.42528C11.7412 3.42528 11.3112 3.85478 11.3112 4.38494C11.3112 4.91494 11.7412 5.34494 12.2712 5.34494C12.8012 5.34494 13.2312 4.91494 13.2312 4.38494C13.2312 3.85494 12.8012 3.42494 12.2712 3.42494V3.42528ZM8.00077 4.54692C5.73194 4.54692 3.89244 6.38643 3.89244 8.65526C3.89244 10.9241 5.73194 12.7628 8.00077 12.7628C10.2696 12.7628 12.1084 10.9241 12.1084 8.65526C12.1084 6.38643 10.2694 4.54692 8.0006 4.54692H8.00077ZM8.0007 5.98859C9.47337 5.98859 10.6674 7.18243 10.6674 8.65526C10.6674 10.1279 9.47337 11.3219 8.0007 11.3219C6.52787 11.3219 5.33404 10.1279 5.33404 8.65526C5.33404 7.18243 6.52787 5.98859 8.0007 5.98859Z" fill="white"/>
</svg>
