<svg width="20" height="17" viewBox="0 0 20 17" fill="none" xmlns="http://www.w3.org/2000/svg">
<path fill-rule="evenodd" clip-rule="evenodd" d="M9.93445 4.91152L9.97642 5.60357L9.27694 5.51883C6.73083 5.19399 4.50649 4.09237 2.6179 2.24221L1.69458 1.32419L1.45676 2.00211C0.953135 3.51331 1.2749 5.10925 2.32411 6.18263C2.8837 6.77581 2.75779 6.86055 1.79251 6.50746C1.45676 6.39448 1.16298 6.30974 1.135 6.35211C1.03707 6.45097 1.37282 7.7362 1.63862 8.24464C2.00235 8.95081 2.7438 9.64285 3.5552 10.0524L4.24069 10.3773L3.42929 10.3914C2.64587 10.3914 2.6179 10.4055 2.70183 10.7021C2.98163 11.6201 4.0868 12.5946 5.31789 13.0183L6.18524 13.3149L5.4298 13.7669C4.31064 14.4166 2.99561 14.7838 1.68059 14.812C1.05106 14.8261 0.533447 14.8826 0.533447 14.925C0.533447 15.0662 2.24018 15.8571 3.23344 16.1678C6.21322 17.0859 9.75259 16.6904 12.4106 15.1227C14.2992 14.007 16.1878 11.7896 17.0691 9.64285C17.5448 8.49886 18.0204 6.4086 18.0204 5.40584C18.0204 4.75617 18.0624 4.67143 18.8458 3.89464C19.3075 3.44269 19.7411 2.94838 19.8251 2.80714C19.965 2.5388 19.951 2.5388 19.2375 2.7789C18.0484 3.2026 17.8805 3.1461 18.4681 2.51055C18.9018 2.0586 19.4194 1.23945 19.4194 0.999351C19.4194 0.95698 19.2095 1.0276 18.9717 1.15471C18.7199 1.29594 18.1603 1.50779 17.7406 1.6349L16.9852 1.875L16.2997 1.40893C15.922 1.15471 15.3904 0.87224 15.1106 0.7875C14.3971 0.589773 13.3059 0.61802 12.6624 0.843993C10.9137 1.47955 9.80854 3.11786 9.93445 4.91152Z" fill="white"/>
</svg>
