<svg width="23" height="17" viewBox="0 0 23 17" fill="none" xmlns="http://www.w3.org/2000/svg">
<path fill-rule="evenodd" clip-rule="evenodd" d="M21.7957 3.15373C21.5397 2.17024 20.7853 1.39579 19.8275 1.13295C18.0916 0.655273 11.1304 0.655273 11.1304 0.655273C11.1304 0.655273 4.16923 0.655273 2.43327 1.13295C1.47542 1.39579 0.721075 2.17024 0.465075 3.15373C0 4.93618 0 8.65527 0 8.65527C0 8.65527 0 12.3742 0.465075 14.1568C0.721075 15.1403 1.47542 15.9148 2.43327 16.1777C4.16923 16.6553 11.1304 16.6553 11.1304 16.6553C11.1304 16.6553 18.0916 16.6553 19.8275 16.1777C20.7853 15.9148 21.5397 15.1403 21.7957 14.1568C22.2609 12.3742 22.2609 8.65527 22.2609 8.65527C22.2609 8.65527 22.2609 4.93618 21.7957 3.15373Z" fill="white"/>
<path fill-rule="evenodd" clip-rule="evenodd" d="M9.0437 12.4814V5.5249L14.6089 9.0033L9.0437 12.4814Z" fill="#533E2D"/>
</svg>
